<svg xmlns="http://www.w3.org/2000/svg" version="1.0" width="431.000000" height="431.000000" preserveAspectRatio="xMidYMid meet" style=""><rect id="backgroundrect" width="100%" height="100%" x="0" y="0" fill="none" stroke="none"/>
<metadata>
Created by potrace 1.11, written by Peter Selinger 2001-2013
</metadata>

<g class="currentLayer" style=""><title>Layer 1</title><g transform="translate(0,431) scale(0.10000000149011612,-0.10000000149011612) " fill="#00c3f9" stroke="none" id="svg_1" class="selected" fill-opacity="1">
<path d="M1900 4110 c-132 -18 -161 -24 -267 -51 -351 -90 -657 -264 -910 -516 -340 -342 -539 -776 -572 -1253 -26 -376 51 -743 222 -1062 97 -180 65 -198 272 153 98 167 220 374 271 459 50 85 150 254 221 375 184 312 444 753 593 1005 70 118 166 282 214 363 90 152 114 178 163 179 52 2 73 -13 131 -90 60 -78 1360 -1851 1400 -1909 44 -62 18 -150 -51 -172 -21 -7 -287 -9 -774 -8 l-743 2 -31 32 c-27 26 -32 39 -32 78 0 39 5 52 32 78 l31 32 625 3 c344 1 625 5 625 8 0 5 -15 26 -195 269 -264 356 -700 946 -843 1140 -85 116 -158 213 -162 217 -3 5 -28 -29 -54 -75 -27 -45 -101 -172 -166 -282 -64 -110 -177 -303 -252 -430 -74 -126 -146 -250 -160 -275 -14 -25 -162 -277 -328 -560 -166 -283 -358 -611 -427 -728 l-124 -213 30 -38 c51 -64 196 -196 304 -276 280 -209 627 -345 972 -379 75 -8 335 -8 395 -1 406 50 744 189 1040 428 309 250 541 596 654 977 55 187 80 368 78 585 -4 715 -414 1383 -1053 1718 -290 153 -586 225 -914 224 -88 0 -185 -3 -215 -7z" id="svg_2" fill="#00c3f9" fill-opacity="1"/>
</g></g></svg>